<?xml version="1.0" encoding="utf-8"?>
<!-- Generator: Adobe Illustrator 23.0.1, SVG Export Plug-In . SVG Version: 6.00 Build 0)  -->
<svg version="1.1" id="Layer_1" xmlns="http://www.w3.org/2000/svg" xmlns:xlink="http://www.w3.org/1999/xlink" x="0px" y="0px"
	 viewBox="0 0 384.5 383.4" style="enable-background:new 0 0 384.5 383.4;" xml:space="preserve">
<style type="text/css">
	.st0{fill:#FFAB03;}
	.st1{fill:#FFFFFF;}
</style>
<path class="st0" d="M163.6,77.9L193.9,0l26,77.9H163.6z"/>
<path class="st0" d="M163.1,305.6l30.3,77.9l26-77.9H163.1z"/>
<path class="st0" d="M77.9,221.9L0,191.6l77.9-26V221.9z"/>
<path class="st0" d="M306.6,221.8l77.9-30.3l-77.9-26V221.8z"/>
<path class="st0" d="M91.9,131.7L58.2,55.2l73.4,36.7L91.9,131.7z"/>
<path class="st0" d="M249.1,295.5l76.5,33.6l-36.7-73.4L249.1,295.5z"/>
<path class="st0" d="M133.2,295.5l-76.5,33.6l36.7-73.4L133.2,295.5z"/>
<path class="st0" d="M290.4,131.7l33.6-76.5L250.7,92L290.4,131.7z"/>
<g>
	<circle class="st0" cx="191.7" cy="193.7" r="113.7"/>
	<path class="st1" d="M191.7,87.1c58.8,0,106.7,47.8,106.7,106.7s-47.8,106.7-106.7,106.7S85.1,252.5,85.1,193.7
		S132.9,87.1,191.7,87.1 M191.7,73.1c-66.6,0-120.7,54-120.7,120.7s54,120.7,120.7,120.7c66.6,0,120.7-54,120.7-120.7
		C312.4,127.1,258.4,73.1,191.7,73.1L191.7,73.1z"/>
</g>
</svg>
